25 37 0
 2.40000000E-01  3.60000000E-01 0
 4.10000000E-01  5.90000000E-01 0
 5.80000000E-01  8.20000000E-01 0
 7.50000000E-01  5.00000000E-02 0
 9.20000000E-01  2.80000000E-01 0
 9.00000000E-02  5.10000000E-01 0
 2.60000000E-01  7.40000000E-01 0
 4.30000000E-01  9.70000000E-01 0
 6.00000000E-01  2.00000000E-01 0
 7.70000000E-01  4.30000000E-01 0
 9.40000000E-01  6.60000000E-01 0
 1.10000000E-01  8.90000000E-01 0
 2.80000000E-01  1.20000000E-01 0
 4.50000000E-01  3.50000000E-01 0
 6.20000000E-01  5.80000000E-01 0
 7.90000000E-01  8.10000000E-01 0
 9.60000000E-01  4.00000000E-02 0
 1.30000000E-01  2.70000000E-01 0
 3.00000000E-01  5.00000000E-01 0
 4.70000000E-01  7.30000000E-01 0
 6.40000000E-01  9.60000000E-01 0
 8.10000000E-01  1.90000000E-01 0
 9.80000000E-01  4.20000000E-01 0
 1.50000000E-01  6.50000000E-01 0
 3.20000000E-01  8.80000000E-01 0
4 9 13 0
9 10 14 0
1 13 14 0
13 9 14 0
10 11 15 0
2 14 15 0
14 10 15 0
3 15 16 0
15 11 16 0
1 6 18 0
13 1 18 0
6 1 19 0
2 7 19 0
1 14 19 0
14 2 19 0
7 2 20 0
3 8 20 0
2 15 20 0
15 3 20 0
8 3 21 0
3 16 21 0
9 4 22 0
5 10 22 0
10 9 22 0
4 17 22 0
17 5 22 0
10 5 23 0
11 10 23 0
5 17 23 0
7 12 24 0
12 6 24 0
6 19 24 0
19 7 24 0
8 12 25 0
12 7 25 0
7 20 25 0
20 8 25 0
