100 183 0
 1.93333333E-01  2.33333333E-01 0
 3.30000000E-01  3.90000000E-01 0
 4.66666667E-01  5.46666667E-01 0
 6.03333333E-01  7.03333333E-01 0
 7.40000000E-01  8.60000000E-01 0
 8.76666667E-01  1.66666667E-02 0
 1.33333333E-02  1.73333333E-01 0
 1.50000000E-01  3.30000000E-01 0
 2.86666667E-01  4.86666667E-01 0
 4.23333333E-01  6.43333333E-01 0
 5.60000000E-01  8.00000000E-01 0
 6.96666667E-01  9.56666667E-01 0
 8.33333333E-01  1.13333333E-01 0
 9.70000000E-01  2.70000000E-01 0
 1.06666667E-01  4.26666667E-01 0
 2.43333333E-01  5.83333333E-01 0
 3.80000000E-01  7.40000000E-01 0
 5.16666667E-01  8.96666667E-01 0
 6.53333333E-01  5.33333333E-02 0
 7.90000000E-01  2.10000000E-01 0
 9.26666667E-01  3.66666667E-01 0
 6.33333333E-02  5.23333333E-01 0
 2.00000000E-01  6.80000000E-01 0
 3.36666667E-01  8.36666667E-01 0
 4.73333333E-01  9.93333333E-01 0
 6.10000000E-01  1.50000000E-01 0
 7.46666667E-01  3.06666667E-01 0
 8.83333333E-01  4.63333333E-01 0
 2.00000000E-02  6.20000000E-01 0
 1.56666667E-01  7.76666667E-01 0
 2.93333333E-01  9.33333333E-01 0
 4.30000000E-01  9.00000000E-02 0
 5.66666667E-01  2.46666667E-01 0
 7.03333333E-01  4.03333333E-01 0
 8.40000000E-01  5.60000000E-01 0
 9.76666667E-01  7.16666667E-01 0
 1.13333333E-01  8.73333333E-01 0
 2.50000000E-01  3.00000000E-02 0
 3.86666667E-01  1.86666667E-01 0
 5.23333333E-01  3.43333333E-01 0
 6.60000000E-01  5.00000000E-01 0
 7.96666667E-01  6.56666667E-01 0
 9.33333333E-01  8.13333333E-01 0
 7.00000000E-02  9.70000000E-01 0
 2.06666667E-01  1.26666667E-01 0
 3.43333333E-01  2.83333333E-01 0
 4.80000000E-01  4.40000000E-01 0
 6.16666667E-01  5.96666667E-01 0
 7.53333333E-01  7.53333333E-01 0
 8.90000000E-01  9.10000000E-01 0
 2.66666667E-02  6.66666667E-02 0
 1.63333333E-01  2.23333333E-01 0
 3.00000000E-01  3.80000000E-01 0
 4.36666667E-01  5.36666667E-01 0
 5.73333333E-01  6.93333333E-01 0
 7.10000000E-01  8.50000000E-01 0
 8.46666667E-01  6.66666667E-03 0
 9.83333333E-01  1.63333333E-01 0
 1.20000000E-01  3.20000000E-01 0
 2.56666667E-01  4.76666667E-01 0
 3.93333333E-01  6.33333333E-01 0
 5.30000000E-01  7.90000000E-01 0
 6.66666667E-01  9.46666667E-01 0
 8.03333333E-01  1.03333333E-01 0
 9.40000000E-01  2.60000000E-01 0
 7.66666667E-02  4.16666667E-01 0
 2.13333333E-01  5.73333333E-01 0
 3.50000000E-01  7.30000000E-01 0
 4.86666667E-01  8.86666667E-01 0
 6.23333333E-01  4.33333333E-02 0
 7.60000000E-01  2.00000000E-01 0
 8.96666667E-01  3.56666667E-01 0
 3.33333333E-02  5.13333333E-01 0
 1.70000000E-01  6.70000000E-01 0
 3.06666667E-01  8.26666667E-01 0
 4.43333333E-01  9.83333333E-01 0
 5.80000000E-01  1.40000000E-01 0
 7.16666667E-01  2.96666667E-01 0
 8.53333333E-01  4.53333333E-01 0
 9.90000000E-01  6.10000000E-01 0
 1.26666667E-01  7.66666667E-01 0
 2.63333333E-01  9.23333333E-01 0
 4.00000000E-01  8.00000000E-02 0
 5.36666667E-01  2.36666667E-01 0
 6.73333333E-01  3.93333333E-01 0
 8.10000000E-01  5.50000000E-01 0
 9.46666667E-01  7.06666667E-01 0
 8.33333333E-02  8.63333333E-01 0
 2.20000000E-01  2.00000000E-02 0
 3.56666667E-01  1.76666667E-01 0
 4.93333333E-01  3.33333333E-01 0
 6.30000000E-01  4.90000000E-01 0
 7.66666667E-01  6.46666667E-01 0
 9.03333333E-01  8.03333333E-01 0
 4.00000000E-02  9.60000000E-01 0
 1.76666667E-01  1.16666667E-01 0
 3.13333333E-01  2.73333333E-01 0
 4.50000000E-01  4.30000000E-01 0
 5.86666667E-01  5.86666667E-01 0
 7.23333333E-01  7.43333333E-01 0
12 5 50 0
1 8 52 0
45 1 52 0
2 9 53 0
46 2 53 0
3 10 54 0
47 3 54 0
4 11 55 0
48 4 55 0
5 12 56 0
49 5 56 0
6 13 57 0
13 6 58 0
8 15 59 0
7 52 59 0
52 8 59 0
9 16 60 0
53 9 60 0
15 8 60 0
8 53 60 0
10 17 61 0
54 10 61 0
16 9 61 0
9 54 61 0
11 18 62 0
55 11 62 0
17 10 62 0
10 55 62 0
12 25 63 0
25 18 63 0
56 12 63 0
18 11 63 0
11 56 63 0
13 20 64 0
19 57 64 0
57 13 64 0
14 21 65 0
58 14 65 0
20 13 65 0
13 58 65 0
15 22 66 0
7 59 66 0
59 15 66 0
16 23 67 0
60 16 67 0
22 15 67 0
15 60 67 0
17 24 68 0
61 17 68 0
23 16 68 0
16 61 68 0
18 25 69 0
62 18 69 0
24 17 69 0
17 62 69 0
19 26 70 0
57 19 70 0
20 27 71 0
64 20 71 0
26 19 71 0
19 64 71 0
21 28 72 0
65 21 72 0
27 20 72 0
20 65 72 0
22 29 73 0
66 22 73 0
29 7 73 0
7 66 73 0
23 30 74 0
67 23 74 0
29 22 74 0
22 67 74 0
24 31 75 0
68 24 75 0
30 23 75 0
23 68 75 0
25 44 76 0
44 31 76 0
69 25 76 0
31 24 76 0
24 69 76 0
26 33 77 0
32 70 77 0
70 26 77 0
27 34 78 0
71 27 78 0
33 26 78 0
26 71 78 0
28 35 79 0
72 28 79 0
34 27 79 0
27 72 79 0
21 14 80 0
28 21 80 0
35 28 80 0
14 58 80 0
30 37 81 0
29 74 81 0
74 30 81 0
31 44 82 0
44 37 82 0
75 31 82 0
37 30 82 0
30 75 82 0
32 39 83 0
38 70 83 0
70 32 83 0
33 40 84 0
77 33 84 0
39 32 84 0
32 77 84 0
34 41 85 0
78 34 85 0
40 33 85 0
33 78 85 0
35 42 86 0
79 35 86 0
41 34 86 0
34 79 86 0
36 43 87 0
80 36 87 0
42 35 87 0
35 80 87 0
37 44 88 0
29 81 88 0
81 37 88 0
38 45 89 0
57 70 89 0
70 38 89 0
1 45 90 0
39 46 90 0
83 39 90 0
45 38 90 0
38 83 90 0
2 46 91 0
40 47 91 0
84 40 91 0
46 39 91 0
39 84 91 0
3 47 92 0
41 48 92 0
85 41 92 0
47 40 92 0
40 85 92 0
4 48 93 0
42 49 93 0
86 42 93 0
48 41 93 0
41 86 93 0
5 49 94 0
43 50 94 0
50 5 94 0
87 43 94 0
49 42 94 0
42 87 94 0
29 88 95 0
88 44 95 0
7 51 96 0
45 52 96 0
52 7 96 0
51 89 96 0
89 45 96 0
8 1 97 0
53 8 97 0
46 53 97 0
1 90 97 0
90 46 97 0
9 2 98 0
54 9 98 0
47 54 98 0
2 91 98 0
91 47 98 0
10 3 99 0
55 10 99 0
48 55 99 0
3 92 99 0
92 48 99 0
11 4 100 0
56 11 100 0
49 56 100 0
4 93 100 0
93 49 100 0
