50 87 0
 2.10000000E-01  2.80000000E-01 0
 3.65000000E-01  4.65000000E-01 0
 5.20000000E-01  6.50000000E-01 0
 6.75000000E-01  8.35000000E-01 0
 8.30000000E-01  2.00000000E-02 0
 9.85000000E-01  2.05000000E-01 0
 1.40000000E-01  3.90000000E-01 0
 2.95000000E-01  5.75000000E-01 0
 4.50000000E-01  7.60000000E-01 0
 6.05000000E-01  9.45000000E-01 0
 7.60000000E-01  1.30000000E-01 0
 9.15000000E-01  3.15000000E-01 0
 7.00000000E-02  5.00000000E-01 0
 2.25000000E-01  6.85000000E-01 0
 3.80000000E-01  8.70000000E-01 0
 5.35000000E-01  5.50000000E-02 0
 6.90000000E-01  2.40000000E-01 0
 8.45000000E-01  4.25000000E-01 0
 0.00000000E+00  6.10000000E-01 0
 1.55000000E-01  7.95000000E-01 0
 3.10000000E-01  9.80000000E-01 0
 4.65000000E-01  1.65000000E-01 0
 6.20000000E-01  3.50000000E-01 0
 7.75000000E-01  5.35000000E-01 0
 9.30000000E-01  7.20000000E-01 0
 8.50000000E-02  9.05000000E-01 0
 2.40000000E-01  9.00000000E-02 0
 3.95000000E-01  2.75000000E-01 0
 5.50000000E-01  4.60000000E-01 0
 7.05000000E-01  6.45000000E-01 0
 8.60000000E-01  8.30000000E-01 0
 1.50000000E-02  1.50000000E-02 0
 1.70000000E-01  2.00000000E-01 0
 3.25000000E-01  3.85000000E-01 0
 4.80000000E-01  5.70000000E-01 0
 6.35000000E-01  7.55000000E-01 0
 7.90000000E-01  9.40000000E-01 0
 9.45000000E-01  1.25000000E-01 0
 1.00000000E-01  3.10000000E-01 0
 2.55000000E-01  4.95000000E-01 0
 4.10000000E-01  6.80000000E-01 0
 5.65000000E-01  8.65000000E-01 0
 7.20000000E-01  5.00000000E-02 0
 8.75000000E-01  2.35000000E-01 0
 3.00000000E-02  4.20000000E-01 0
 1.85000000E-01  6.05000000E-01 0
 3.40000000E-01  7.90000000E-01 0
 4.95000000E-01  9.75000000E-01 0
 6.50000000E-01  1.60000000E-01 0
 8.05000000E-01  3.45000000E-01 0
12 6 25 0
18 12 25 0
24 18 25 0
19 20 26 0
20 21 26 0
16 22 27 0
22 23 28 0
1 27 28 0
27 22 28 0
23 24 29 0
2 28 29 0
28 23 29 0
24 25 30 0
3 29 30 0
29 24 30 0
4 30 31 0
30 25 31 0
5 16 32 0
16 27 32 0
27 1 33 0
32 27 33 0
7 1 34 0
1 28 34 0
28 2 34 0
8 2 35 0
2 29 35 0
29 3 35 0
9 3 36 0
3 30 36 0
30 4 36 0
10 4 37 0
4 31 37 0
11 5 38 0
1 7 39 0
33 1 39 0
32 33 39 0
13 7 40 0
2 8 40 0
34 2 40 0
7 34 40 0
14 8 41 0
3 9 41 0
35 3 41 0
8 35 41 0
15 9 42 0
4 10 42 0
36 4 42 0
9 36 42 0
5 11 43 0
16 5 43 0
17 11 44 0
6 12 44 0
38 6 44 0
11 38 44 0
7 13 45 0
39 7 45 0
13 19 45 0
19 32 45 0
32 39 45 0
19 13 46 0
14 20 46 0
20 19 46 0
8 14 46 0
40 8 46 0
13 40 46 0
20 14 47 0
15 21 47 0
21 20 47 0
9 15 47 0
41 9 47 0
14 41 47 0
21 15 48 0
10 37 48 0
15 42 48 0
42 10 48 0
22 16 49 0
17 23 49 0
23 22 49 0
11 17 49 0
43 11 49 0
16 43 49 0
23 17 50 0
18 24 50 0
24 23 50 0
12 18 50 0
44 12 50 0
17 44 50 0
